<svg xmlns="http://www.w3.org/2000/svg" id="Layer_1" viewBox="0 0 165.2 181">
  <style>
    .st0{fill:#1772B9;} .st1{fill:#51C9F1;} .st2{fill:#FFFFFF;} .st3{fill:#77D0EC;} .st4{fill:none;stroke:#1772B9;stroke-width:8.5;stroke-linecap:round;stroke-linejoin:round;stroke-miterlimit:10;} .st5{fill:#1172B7;} .st6{fill:#252526;} .st7{fill:#B7D336;} .st8{fill:#F1F1F1;}
  </style>
  <path d="M112 181c-.7 0-1.3 0-2-.1-17.1-1.1-28.3-13.8-27.9-31.6.7-26.4.2-63 .2-63.3 0-2.3 1.9-4.3 4.2-4.3 2.3 0 4.3 1.9 4.3 4.2 0 .4.4 37.1-.2 63.7-.4 15.9 10 22.3 19.9 22.9 13.4.9 20.2-10.8 20.3-10.9 1.2-2 3.8-2.7 5.8-1.6 2 1.2 2.7 3.8 1.6 5.8-.3.6-8.9 15.2-26.2 15.2z" class="st0"/>
  <path d="M148.4 139.8c-1.8 0-3.5-1.2-4.1-3-3.3-10.9-6.4-13.6-19.6-9.7-6.1 1.8-11.1 1.3-14.9-1.5-4.6-3.4-6.9-9.7-6.9-19.3l-.1-18.5h8.5l.1 18.5c0 6.5 1.3 10.9 3.5 12.6 1.5 1.1 4 1.2 7.4.2 16.9-5.1 25.4-.8 30.2 15.4.7 2.2-.6 4.6-2.8 5.3h-1.3z" class="st0"/>
  <path d="M114.8 152.7c-1.4 0-2.5-.1-3.3-.2-12.7-1.2-19.7-12.6-19.7-22.8 0-8.2.2-54.4.2-54.8 0-2.3 1.9-4.2 4.2-4.2 2.3 0 4.2 1.9 4.2 4.3 0 .5-.3 46.6-.2 54.7 0 6.4 4.2 13.6 12 14.3 4.9.4 10.7 0 15.6-7 1.4-1.9 4-2.4 5.9-1 1.9 1.4 2.4 4 1 5.9-6.5 9.5-14.9 10.8-19.9 10.8z" class="st0"/>
  <path d="M163.5 125.3c-5.5-4.3-13.2-7.5-31.7-1.9-5.3 1.6-9 1.6-11.2 0-2.9-2.2-3.6-7.8-3.6-12.2l-.1-20-.2-28.4v-.3c-.1-14-11.5-25.3-25.5-25.2C77.3 37.4 66 48.7 66 62.6l.1 10.2v.4l.1 18.2.1 17.8c-1.7.6-3.6.8-5.3.7-10.3-.7-14.7-4.7-18.5-16.7L28.1 44.9c-.7-2.2-3-3.5-5.3-2.8-2.2.7-3.5 3-2.8 5.3l14.6 48.4c3.5 11.1 9 21.5 26 22.7H62c1.5 0 3-.2 4.5-.5v7.7c-1.4.5-2.8.9-4.5 1.4-11 3.3-21.1 14.3-18.2 26.2.5 1.9 2.2 3.3 4.1 3.3.3 0 .7 0 1-.1 2.3-.5 3.7-2.8 3.1-5.1-1.6-6.8 5.2-13.9 12.4-16.1.8-.2 1.5-.4 2.1-.7l.1 10c0 2.3 1.9 4.2 4.2 4.2 2.3 0 4.2-1.9 4.2-4.3v-12.6c2.8-.9 6.5-2.1 12.3-3.8.1 0 .1 0 .2-.1l.1 13.8c0 3.4-1.1 9.4-9 11.9-7.3 2.3-12.1-1.9-12.3-2.1-1.7-1.6-4.4-1.6-6 .1-1.6 1.7-1.6 4.4.1 6 .3.3 5.5 5.1 13.8 5.1 2.1 0 4.4-.3 6.9-1.1 9.4-3 14.9-10.5 14.9-20v-17.2c10.7-6.2 10.5-15.4 10.4-23.6v-9.7h2.2l.1 20c0 9.3 2.4 15.5 7 19 2.6 1.9 5.7 2.9 9.5 2.9 2.7 0 5.8-.5 9.2-1.5 16.9-5.1 21.5-1.5 24 .5 1.9 1.4 4.5 1.1 6-.8 1.3-1.9 1-4.5-.9-6zM76.9 91.4V96c0 2.4-.7 4.7-2 6.8l-.1-11.3 2.1-.1zm8 28.6c-4.2 1.3-7.4 2.2-9.9 3l-.1-8.5c1.2-.8 2.3-1.6 3.3-2.6 4.6-4.3 7.2-10.1 7.2-16v-4.6h2l.1 27.7c-.9.4-1.7.7-2.6 1zm12.9-21.8v2.9c.1 5.2.2 9.2-1.9 12.3l-.1-22.1h1.9c.1 2.5.1 4.9.1 6.9z" class="st1"/>
  <ellipse cx="75.2" cy="76.1" transform="rotate(-.31 75.2 76.127)" class="st2" rx="3" ry="3"/>
  <ellipse cx="94.2" cy="76" transform="rotate(-.31 94.223 76.03)" class="st2" rx="3" ry="3"/>
  <path d="M79.8 61.9c-1.4-.7-3.1-.9-4.9-.4-1.8.4-3.2 1.4-4.2 2.6l9.1-2.2zm19.8 1.5c-1-1.2-2.6-2.2-4.5-2.5-1.9-.4-3.7-.1-5.1.6l9.6 1.9z" class="st0"/>
  <ellipse cx="91.7" cy="50" transform="translate(-.27 .5)" class="st3" rx="3.4" ry="3.4"/>
  <ellipse cx="101.8" cy="52.3" transform="rotate(-.31 101.82 52.316)" class="st3" rx="5.7" ry="5.7"/>
  <ellipse cx="96.5" cy="43.8" transform="rotate(-.31 96.52 43.83)" class="st3" rx="3" ry="3"/>
  <ellipse cx="74.2" cy="74.6" transform="rotate(-16.75 74.205 74.6)" class="st5" rx="1.6" ry="1.6"/>
  <ellipse cx="93.2" cy="74.4" transform="rotate(-16.75 93.194 74.366)" class="st5" rx="1.6" ry="1.6"/>
  <path d="M1.5 1.5h45v34h-45z" class="st6"/>
  <path d="M48 37H0V0h48v37zM3 34h42V3H3v31z" class="st7"/>
  <path d="M18 1.5h1v34h-1z" class="st7"/>
  <path d="M9.1 19c0-.6.1-1.2.2-1.6s.3-.7.5-1c.2-.2.5-.5.8-.7.2-.2.4-.4.6-.5.1-.1.3-.3.4-.5.1-.2.1-.5.1-.8 0-.5-.1-.8-.4-1.1-.3-.3-.6-.4-1.1-.4-.6 0-1.3.1-2.2.3l-.3-1.9c.4-.1.8-.2 1.3-.3.5-.1.9-.1 1.4-.1 1.1 0 2 .3 2.7.8s.9 1.3.9 2.3c0 .6-.1 1.1-.2 1.5-.1.4-.3.7-.5 1l-.8.8c-.3.2-.5.4-.6.6-.2.2-.3.4-.4.6-.1.2-.2.5-.2.9v1.5h-2V19zm.1 4.6c-.2-.2-.4-.6-.4-.9s.1-.7.4-1c.2-.2.6-.4 1-.4s.7.1 1 .4c.2.2.4.6.4 1s-.1.7-.4.9c-.2.2-.6.4-1 .4s-.8-.2-1-.4z" class="st8"/>
</svg>
