<svg id="Layer_1" xmlns="http://www.w3.org/2000/svg" xmlns:xlink="http://www.w3.org/1999/xlink" viewBox="0 0 235.3 148.5"><style>.st0{clip-path:url(#SVGID_2_);fill:none;stroke:#1772B9;stroke-width:11.5632;stroke-linecap:round;stroke-linejoin:round;stroke-miterlimit:10;} .st1{clip-path:url(#SVGID_4_);fill:none;stroke:#1772B9;stroke-width:11.5632;stroke-linecap:round;stroke-linejoin:round;stroke-miterlimit:10;} .st2{clip-path:url(#SVGID_6_);fill:none;stroke:#1772B9;stroke-width:11.5632;stroke-linecap:round;stroke-linejoin:round;stroke-miterlimit:10;} .st3{clip-path:url(#SVGID_8_);fill:none;stroke:#51C9F1;stroke-width:11.5632;stroke-linecap:round;stroke-linejoin:round;stroke-miterlimit:10;} .st4{clip-path:url(#SVGID_10_);fill:none;stroke:#51C9F1;stroke-width:11.5632;stroke-linecap:round;stroke-linejoin:round;stroke-miterlimit:10;} .st5{clip-path:url(#SVGID_12_);fill:none;stroke:#51C9F1;stroke-width:11.5632;stroke-linecap:round;stroke-linejoin:round;stroke-miterlimit:10;} .st6{clip-path:url(#SVGID_14_);fill:#51C9F1;} .st7{clip-path:url(#SVGID_16_);fill:#FFFFFF;} .st8{clip-path:url(#SVGID_18_);fill:#FFFFFF;} .st9{clip-path:url(#SVGID_20_);fill:none;} .st10{clip-path:url(#SVGID_22_);fill:none;stroke:#25BCEE;stroke-width:11.5632;stroke-linecap:round;stroke-linejoin:round;stroke-miterlimit:10;} .st11{clip-path:url(#SVGID_24_);fill:none;stroke:#51C9F1;stroke-width:11.5632;stroke-linecap:round;stroke-linejoin:round;stroke-miterlimit:10;} .st12{clip-path:url(#SVGID_26_);fill:none;stroke:#51C9F1;stroke-width:11.5632;stroke-linecap:round;stroke-linejoin:round;stroke-miterlimit:10;} .st13{clip-path:url(#SVGID_28_);fill:#1772B9;} .st14{clip-path:url(#SVGID_30_);fill:#1772B9;} .st15{clip-path:url(#SVGID_32_);} .st16{fill:#77D0EC;} .st17{clip-path:url(#SVGID_34_);fill:none;stroke:#1772B9;stroke-width:11.5632;stroke-linecap:round;stroke-linejoin:round;stroke-miterlimit:10;} .st18{clip-path:url(#SVGID_36_);fill:none;stroke:#1772B9;stroke-width:11.5632;stroke-linecap:round;stroke-linejoin:round;stroke-miterlimit:10;} .st19{clip-path:url(#SVGID_38_);fill:#1172B7;} .st20{clip-path:url(#SVGID_40_);fill:#1172B7;} .st21{fill:none;stroke:#25BCEE;stroke-width:2.7208;stroke-linecap:round;stroke-linejoin:round;stroke-miterlimit:10;} .st22{fill:#1772B9;} .st23{clip-path:url(#SVGID_42_);fill:none;stroke:#51C9F1;stroke-width:10.0973;stroke-linecap:round;stroke-linejoin:round;stroke-miterlimit:10;} .st24{clip-path:url(#SVGID_44_);} .st25{fill:#E3E3E3;} .st26{fill:#E51E27;} .st27{fill:#BF2026;} .st28{fill:none;stroke:#929497;stroke-width:2.2725;stroke-miterlimit:10;} .st29{clip-path:url(#SVGID_46_);fill:#51C9F1;}</style><defs><path id="SVGID_1_" d="M201.8 2.2H41.7v74.9c-1.2 2.2-1.8 4.4-1.8 6.7 0 17.5 36.1 31.7 80.7 31.7 40.7 0 74.3-11.8 79.9-27.2h1.3V2.2z"/></defs><clipPath id="SVGID_2_"><use xlink:href="#SVGID_1_" overflow="visible"/></clipPath><path class="st0" d="M111.7 80.6v54c0 6.8 8.2 15.9 24.5 31.3 13 12.2 15.9 35.2 4 47.7"/><defs><path id="SVGID_3_" d="M201.8 2.2H41.7v74.9c-1.2 2.2-1.8 4.4-1.8 6.7 0 17.5 36.1 31.7 80.7 31.7 40.7 0 74.3-11.8 79.9-27.2h1.3V2.2z"/></defs><clipPath id="SVGID_4_"><use xlink:href="#SVGID_3_" overflow="visible"/></clipPath><path class="st1" d="M125 195.6V86.8h14.2v33.3"/><defs><path id="SVGID_5_" d="M201.8 2.2H41.7v74.9c-1.2 2.2-1.8 4.4-1.8 6.7 0 17.5 36.1 31.7 80.7 31.7 40.7 0 74.3-11.8 79.9-27.2h1.3V2.2z"/></defs><clipPath id="SVGID_6_"><use xlink:href="#SVGID_5_" overflow="visible"/></clipPath><path class="st2" d="M96.7 91.5v55.3c0 18.4-15.6 32.8-32 32.8-21.8 0-31.2-16.8-33-25.6"/><defs><path id="SVGID_7_" d="M201.8 2.2H41.7v74.9c-1.2 2.2-1.8 4.4-1.8 6.7 0 17.5 36.1 31.7 80.7 31.7 40.7 0 74.3-11.8 79.9-27.2h1.3V2.2z"/></defs><clipPath id="SVGID_8_"><use xlink:href="#SVGID_7_" overflow="visible"/></clipPath><path class="st3" d="M146.4 66.9v100.8c0 17.5 18 30 18 30"/><defs><path id="SVGID_9_" d="M201.8 2.2H41.7v74.9c-1.2 2.2-1.8 4.4-1.8 6.7 0 17.5 36.1 31.7 80.7 31.7 40.7 0 74.3-11.8 79.9-27.2h1.3V2.2z"/></defs><clipPath id="SVGID_10_"><use xlink:href="#SVGID_9_" overflow="visible"/></clipPath><path class="st4" d="M117.9 84.1v116.2c0 8.1-2.2 17.9-15.2 17.9h-7.4"/><defs><path id="SVGID_11_" d="M201.8 2.2H41.7v74.9c-1.2 2.2-1.8 4.4-1.8 6.7 0 17.5 36.1 31.7 80.7 31.7 40.7 0 74.3-11.8 79.9-27.2h1.3V2.2z"/></defs><clipPath id="SVGID_12_"><use xlink:href="#SVGID_11_" overflow="visible"/></clipPath><path class="st5" d="M89.1 84.1v35.3c0 19-7.7 31.7-24.7 31.7-17.2 0-24.8-24.1-43.9-11.2"/><defs><path id="SVGID_13_" d="M201.8 2.2H41.7v74.9c-1.2 2.2-1.8 4.4-1.8 6.7 0 17.5 36.1 31.7 80.7 31.7 40.7 0 74.3-11.8 79.9-27.2h1.3V2.2z"/></defs><clipPath id="SVGID_14_"><use xlink:href="#SVGID_13_" overflow="visible"/></clipPath><path class="st6" d="M83.3 53.2c0-19 15.4-34.5 34.5-34.5 19 0 34.3 15.3 34.5 34.2v39.2h-69V53.2z"/><defs><path id="SVGID_15_" d="M201.8 2.2H41.7v74.9c-1.2 2.2-1.8 4.4-1.8 6.7 0 17.5 36.1 31.7 80.7 31.7 40.7 0 74.3-11.8 79.9-27.2h1.3V2.2z"/></defs><clipPath id="SVGID_16_"><use xlink:href="#SVGID_15_" overflow="visible"/></clipPath><circle class="st7" cx="139.9" cy="71.4" r="4.1"/><defs><path id="SVGID_17_" d="M201.8 2.2H41.7v74.9c-1.2 2.2-1.8 4.4-1.8 6.7 0 17.5 36.1 31.7 80.7 31.7 40.7 0 74.3-11.8 79.9-27.2h1.3V2.2z"/></defs><clipPath id="SVGID_18_"><use xlink:href="#SVGID_17_" overflow="visible"/></clipPath><circle class="st8" cx="114.1" cy="71.4" r="4.1"/><defs><path id="SVGID_19_" d="M201.8 2.2H41.7v74.9c-1.2 2.2-1.8 4.4-1.8 6.7 0 17.5 36.1 31.7 80.7 31.7 40.7 0 74.3-11.8 79.9-27.2h1.3V2.2z"/></defs><clipPath id="SVGID_20_"><use xlink:href="#SVGID_19_" overflow="visible"/></clipPath><path class="st9" d="M83.3 53.2c0-19.1 15.5-34.5 34.5-34.5 7.2 0 13.9 2.2 19.5 6-2.6-.7-5.3-1.1-8.1-1.1-17.6 0-31.9 14.2-32 31.8-.2 25-13.8 33.7-13.8 33.7s-.1-25.3-.1-35.9z"/><defs><path id="SVGID_21_" d="M201.8 2.2H41.7v74.9c-1.2 2.2-1.8 4.4-1.8 6.7 0 17.5 36.1 31.7 80.7 31.7 40.7 0 74.3-11.8 79.9-27.2h1.3V2.2z"/></defs><clipPath id="SVGID_22_"><use xlink:href="#SVGID_21_" overflow="visible"/></clipPath><path class="st10" d="M132 117c0 14 11.4 25.4 25.4 25.4 7 0 13.1-3.1 18-7.4 9.8-8.6 25.4-25.6 25.4-25.6"/><defs><path id="SVGID_23_" d="M201.8 2.2H41.7v74.9c-1.2 2.2-1.8 4.4-1.8 6.7 0 17.5 36.1 31.7 80.7 31.7 40.7 0 74.3-11.8 79.9-27.2h1.3V2.2z"/></defs><clipPath id="SVGID_24_"><use xlink:href="#SVGID_23_" overflow="visible"/></clipPath><path class="st11" d="M132.1 85.2V117"/><defs><path id="SVGID_25_" d="M201.8 2.2H41.7v74.9c-1.2 2.2-1.8 4.4-1.8 6.7 0 17.5 36.1 31.7 80.7 31.7 40.7 0 74.3-11.8 79.9-27.2h1.3V2.2z"/></defs><clipPath id="SVGID_26_"><use xlink:href="#SVGID_25_" overflow="visible"/></clipPath><path class="st12" d="M103.3 89.7v76c0 15-12.3 31.5-30.9 31.5-18.4 0-21.8-9.9-26.5-15-5.9-6.3-21.3-5.8-26.7 4.8"/><defs><path id="SVGID_27_" d="M201.8 2.2H41.7v74.9c-1.2 2.2-1.8 4.4-1.8 6.7 0 17.5 36.1 31.7 80.7 31.7 40.7 0 74.3-11.8 79.9-27.2h1.3V2.2z"/></defs><clipPath id="SVGID_28_"><use xlink:href="#SVGID_27_" overflow="visible"/></clipPath><path class="st13" d="M133.8 56.4c1.6-1.3 3.9-2.2 6.3-2.2s4.7.8 6.3 2.2h-12.6z"/><defs><path id="SVGID_29_" d="M201.8 2.2H41.7v74.9c-1.2 2.2-1.8 4.4-1.8 6.7 0 17.5 36.1 31.7 80.7 31.7 40.7 0 74.3-11.8 79.9-27.2h1.3V2.2z"/></defs><clipPath id="SVGID_30_"><use xlink:href="#SVGID_29_" overflow="visible"/></clipPath><path class="st14" d="M105.9 59.2c0-2.2.7-4.5 2.3-6.6s3.7-3.5 5.8-4l-8.1 10.6z"/><defs><path id="SVGID_31_" d="M201.8 2.2H41.7v74.9c-1.2 2.2-1.8 4.4-1.8 6.7 0 17.5 36.1 31.7 80.7 31.7 40.7 0 74.3-11.8 79.9-27.2h1.3V2.2z"/></defs><clipPath id="SVGID_32_"><use xlink:href="#SVGID_31_" overflow="visible"/></clipPath><g class="st15"><circle class="st16" cx="117.3" cy="35.9" r="4.6"/><circle class="st16" cx="103.6" cy="39.2" r="7.8"/><circle class="st16" cx="110.7" cy="27.6" r="4.1"/></g><defs><path id="SVGID_33_" d="M201.8 2.2H41.7v74.9c-1.2 2.2-1.8 4.4-1.8 6.7 0 17.5 36.1 31.7 80.7 31.7 40.7 0 74.3-11.8 79.9-27.2h1.3V2.2z"/></defs><clipPath id="SVGID_34_"><use xlink:href="#SVGID_33_" overflow="visible"/></clipPath><defs><path id="SVGID_35_" d="M201.8 2.2H41.7v74.9c-1.2 2.2-1.8 4.4-1.8 6.7 0 17.5 36.1 31.7 80.7 31.7 40.7 0 74.3-11.8 79.9-27.2h1.3V2.2z"/></defs><clipPath id="SVGID_36_"><use xlink:href="#SVGID_35_" overflow="visible"/></clipPath><defs><path id="SVGID_37_" d="M201.8 2.2H41.7v74.9c-1.2 2.2-1.8 4.4-1.8 6.7 0 17.5 36.1 31.7 80.7 31.7 40.7 0 74.3-11.8 79.9-27.2h1.3V2.2z"/></defs><clipPath id="SVGID_38_"><use xlink:href="#SVGID_37_" overflow="visible"/></clipPath><circle class="st19" cx="112.6" cy="71.9" r="2.2"/><defs><path id="SVGID_39_" d="M201.8 2.2H41.7v74.9c-1.2 2.2-1.8 4.4-1.8 6.7 0 17.5 36.1 31.7 80.7 31.7 40.7 0 74.3-11.8 79.9-27.2h1.3V2.2z"/></defs><clipPath id="SVGID_40_"><use xlink:href="#SVGID_39_" overflow="visible"/></clipPath><circle class="st20" cx="138.5" cy="71.9" r="2.2"/><path class="st21" d="M127.8 125c-5.5.3-11.3.4-17.2.4-44.3 0-80.3-7.7-80.3-17.3 0-6 14-11.2 35.3-14.3"/><path class="st21" d="M171.3 91.1c20.3 4.4 33.2 11 33.2 18.4 0 13.4-42.4 24.2-94.8 24.2-8.8 0-17.3-.3-25.3-.9m119.2 1.6c-21 7.4-52.1 12-86.7 12-28.8 0-55-3.2-75.2-8.5m118.9-58.7c26.4 3.3 47.8 9.5 60 17.3M4.7 118.7c-1.6-2.3-2.5-4.8-2.5-7.3 0-14.9 30.7-27.6 73.9-32.6"/><path class="st22" d="M66.7 86.5s-31.3 5.9-40.4 11.8c-9.1 5.9 4.1-25.8 13.6-38.5s12.7-15.9 15.4-4.1C58 67.5 66.7 86.5 66.7 86.5z"/><defs><path id="SVGID_41_" d="M156.1-8.5h89.4v120h-89.4z"/></defs><clipPath id="SVGID_42_"><use xlink:href="#SVGID_41_" overflow="visible"/></clipPath><path class="st23" d="M197.4 52.9s.2 11 .2 28.3c0 24.8-22.6 36.7-36.5 36.7-17.4 0-36.7-14.4-36.7-34.6V59.7"/><defs><path id="SVGID_43_" d="M156.1-8.5h89.4v120h-89.4z"/></defs><clipPath id="SVGID_44_"><use xlink:href="#SVGID_43_" overflow="visible"/></clipPath><g class="st24"><path class="st25" d="M196.1 4.6c-18.8 0-34.1 15.3-34.1 34.1s15.3 34.1 34.1 34.1 34.1-15.3 34.1-34.1c0-18.9-15.3-34.1-34.1-34.1zm0 52.4c-10.1 0-18.3-8.2-18.3-18.4 0-10.1 8.2-18.4 18.3-18.4 10.1 0 18.3 8.2 18.3 18.4S206.2 57 196.1 57z"/><path class="st26" d="M196.1 4.6c-18.8 0-34.1 15.3-34.1 34.1s15.3 34.1 34.1 34.1 34.1-15.3 34.1-34.1c0-18.9-15.3-34.1-34.1-34.1zm0 52.4c-10.1 0-18.3-8.2-18.3-18.4 0-10.1 8.2-18.4 18.3-18.4 10.1 0 18.3 8.2 18.3 18.4S206.2 57 196.1 57z"/><path class="st27" d="M196.1 68.5c-18.1 0-32.8-14-34-31.8-.1.8-.1 1.5-.1 2.3 0 18.8 15.3 34.1 34.1 34.1s34.1-15.3 34.1-34.1c0-.8 0-1.6-.1-2.3-1.2 17.8-16 31.8-34 31.8zm0-52.5c-10.1 0-18.3 8.2-18.3 18.4 0 .8.1 1.6.2 2.3 1.1-9 8.9-16 18.2-16s17.1 7 18.2 16c.1-.8.2-1.5.2-2.3-.2-10.2-8.4-18.4-18.5-18.4z"/><path class="st28" d="M173.2 12.7c7.6-6.3 15-10.7 22.9-10.6 7.4.1 15.1 4.1 23.7 12.1 9 8.4 14 16.6 13.7 25.1-.3 7.8-5.2 16-11.7 22.4-7.7 7.7-16 14-25.5 14.1-7.9.1-16.9-4.2-25-13.3-8.2-9.3-12.4-18.1-12.1-26.2.3-8.7 5.6-16.6 14-23.6z"/><path class="st25" d="M168.13 14.77l6.36-6.36 13.9 14-6.4 6.36zm37.9 37.88l6.37-6.36 14 14-6.36 6.3zm-38.9 9.1l13.92-13.92 6.37 6.36-13.92 13.9zm38.3-38.35L219 9.83l6.37 6.36-13.57 13.5z"/></g><defs><path id="SVGID_45_" d="M156.1-8.5h89.4v120h-89.4z"/></defs><clipPath id="SVGID_46_"><use xlink:href="#SVGID_45_" overflow="visible"/></clipPath><path class="st29" d="M202.4 52.8l-2.2-.1c-.8-.5-1.8-.9-2.8-.9-1 0-2 .3-2.8.9l-2.2.4s-.1 3.5 0 4.4c.1 2.4 2.4 4.6 5.1 4.6 2.8 0 5.2-2.3 5.1-5.1l-.2-4.2z"/></svg>