<svg xmlns="http://www.w3.org/2000/svg" id="Layer_1" viewBox="0 0 255.7 181.1">
  <style>
    .st0{fill:#666666;} .st1{fill:#B7D336;} .st2{fill:#464748;} .st3{fill:#FFFFFF;} .st4{fill:#1772B9;} .st5{fill:#51C9F1;} .st6{fill:none;stroke:#1772B9;stroke-width:10.2;stroke-linecap:round;stroke-linejoin:round;stroke-miterlimit:10;} .st7{fill:#77D0EC;} .st8{fill:#1172B7;}
  </style>
  <path d="M59 21.9h11.8v7.7H59zM24.6 169.3l38.8-40.5 38.9 40.5h9.6l-46.1-48H61l-46.1 48z" class="st0"/>
  <path d="M1.2 29.5H122v93.6H1.2z" class="st1"/>
  <path d="M123.2 124.4H0v-96h123.2v96zM2.4 122h118.4V30.7H2.4V122z" class="st2"/>
  <path d="M45.4 34.1h2.4v82.8h-2.4z" class="st2"/>
  <path d="M8.5 37.7h32.4v2.4H8.5zm0 6.6h32.4v2.2H8.5zm0 6.6h32.4v2.2H8.5z" class="st3"/>
  <path d="M78.5 69.4c-.3 0-.6-.1-.9-.2l-38-15.3c-1.2-.5-1.8-1.9-1.3-3.1.5-1.2 1.9-1.8 3.1-1.3l38 15.3c1.2.5 1.8 1.9 1.3 3.1-.4.9-1.3 1.5-2.2 1.5zm65.4 107.7c-1.3 0-2.7-.5-3.7-1.6-5.4-5.6-8.3-13.6-8.1-22.3.3-10.2 4.6-20.2 11.7-27 7-6.6 20-18.9 20-23.9V54.7c0-2.8 2.3-5.1 5.1-5.1s5.1 2.3 5.1 5.1v47.6c0 8-7.5 16.5-23.2 31.3-5.2 4.9-8.4 12.3-8.5 19.8-.1 6 1.7 11.4 5.2 15 2 2 1.9 5.3-.1 7.2-1 1-2.2 1.5-3.5 1.5z" class="st4"/>
  <path d="M157.3 161.2c-2.8 0-5.1-2.3-5.1-5.1v-96c0-2.8 2.3-5.1 5.1-5.1s5.1 2.3 5.1 5.1v96c0 2.8-2.3 5.1-5.1 5.1zm53.1-14.1c-18 0-33.3-15.6-33.3-34V64.3c0-2.8 2.3-5.1 5.1-5.1s5.1 2.3 5.1 5.1v48.8c0 14 12.2 23.8 23.1 23.8 20.1 0 24.1-18.3 24.1-18.5.6-2.8 3.3-4.5 6-4 2.8.6 4.5 3.3 4 6-1.9 9.3-11.5 26.7-34.1 26.7z" class="st4"/>
  <path d="M255.1 146.1c-2.9-5.6-8.5-9.4-15.2-10.4-6.5-.9-12.8 1-16.6 5-.9 1-1.8 2.1-2.6 3.2-3.3 4.3-6.4 8.4-17.1 8.4-13 0-22.1-11.9-22.1-22.7V64.9h2.3v24c0 21 9.8 33.1 26.8 33.1 7.9 0 13.6-4.2 18.6-7.9 7.1-5.2 10.5-7.4 17.2-2.8 2.3 1.6 5.5 1 7.1-1.4 1.6-2.3 1-5.5-1.4-7.1-12.9-8.8-22.2-1.9-29 3.1-4.1 3.1-8.1 6-12.6 6-11 0-16.7-7.7-16.7-22.9V30.6c0-16.8-13.6-30.4-30.4-30.4-16.7 0-30.3 13.5-30.4 30.2v73.1c-1.5.4-3 .6-4.6.6-4.3 0-8.5-1.8-12.5-5.3-8.3-7.3-32.1-33.5-32.3-33.7-1.9-2.1-5.1-2.2-7.2-.3-2.1 1.9-2.2 5.1-.3 7.2 1 1.1 24.4 26.8 33.1 34.5 5.8 5.1 12.5 7.8 19.2 7.8 1.6 0 3.1-.1 4.6-.4v17.6c0 12.5-13.6 22.2-13.7 22.3-2.3 1.6-2.9 4.8-1.3 7.1 1 1.4 2.6 2.2 4.2 2.2 1 0 2-.3 2.9-.9.7-.5 18.1-12.8 18.1-30.7v-21.6c7.6-4.9 12.7-13.4 12.7-23.1V64.9h2.3v95.3c0 18.8 12.9 20.9 18.5 20.9h6.5c2.8 0 5.1-2.3 5.1-5.1s-2.3-5.1-5.1-5.1h-6.5c-4.2 0-8.3-.8-8.3-10.7V64.9h2.7v64.7c0 15.9 13 32.8 32.3 32.8 15.8 0 21.5-7.5 25.2-12.4.7-.9 1.3-1.8 1.9-2.4 1.4-1.5 4.6-2.3 7.7-1.9 1.6.2 5.6 1.2 7.6 4.9 1.3 2.5 4.4 3.5 6.9 2.2 2.7-1.1 3.7-4.2 2.4-6.7zM145.9 87c0 3.2-.9 6.1-2.5 8.7V64.9h2.4v21.9c.1.1.1.1.1.2z" class="st5"/>
  <circle cx="144.1" cy="46.5" r="3.6" class="st3"/>
  <circle cx="166.9" cy="46.5" r="3.6" class="st3"/>
  <path d="M149.5 33.3c-1.4-1.2-3.4-1.9-5.6-1.9-2.2 0-4.2.7-5.6 1.9h11.2zm22.9 3c-1.5-1.2-3.6-1.9-5.9-1.9s-4.4.7-5.9 1.9h11.8z" class="st4"/>
  <circle cx="164" cy="15.3" r="4" class="st7"/>
  <circle cx="176.2" cy="18.1" r="6.9" class="st7"/>
  <circle cx="169.9" cy="7.9" r="3.6" class="st7"/>
  <circle cx="164.6" cy="47" r="2" class="st8"/>
  <circle cx="141.7" cy="47" r="2" class="st8"/>
</svg>
