<svg xmlns="http://www.w3.org/2000/svg" id="Layer_1" viewBox="0 0 194.1 181.9">
  <style>
    .st0{fill:#1772B9;} .st1{fill:#51C9F1;} .st2{fill:#FFFFFF;} .st3{fill:#77D0EC;} .st4{fill:none;stroke:#1772B9;stroke-width:10.2;stroke-linecap:round;stroke-linejoin:round;stroke-miterlimit:10;} .st5{fill:#1172B7;} .st6{fill:#777678;} .st7{fill:#B4D6ED;} .st8{fill:#4D4D4D;} .st9{fill:#CBE2EF;}
  </style>
  <path d="M71.4 160.9c-7.6 0-13.7-3.1-14.1-3.3-2.4-1.3-3.4-4.2-2.2-6.7 1.2-2.4 4.2-3.4 6.7-2.2.1 0 9.8 4.8 17.5 0 6.8-4.3 11-7.6 11-21.6V58c0-2.7 2.2-5 5-5s5 2.2 5 5v69.2c0 18.6-7.1 24.6-15.7 30-4.5 2.8-9.1 3.7-13.2 3.7z" class="st0"/>
  <path d="M35.3 167.9c-1.5 0-2.9-.6-3.9-1.9-4.8-6.1-5.8-15-2.6-23.8 4-10.9 13-19.1 23.6-21.2l3.1-.6c16.7-3.3 22.5-5 22.5-15V59.5c0-2.7 2.2-5 5-5 2.7 0 5 2.2 5 5v45.9c0 18.6-14.8 21.6-30.4 24.7l-3 .6c-7.1 1.4-13.5 7.3-16.3 14.9-2 5.5-1.6 10.9 1.1 14.2 1.7 2.1 1.3 5.3-.8 7-1.1.7-2.2 1.1-3.3 1.1z" class="st0"/>
  <path d="M20.7 136.3h-.6c-2.7-.3-4.7-2.8-4.3-5.5 3.4-28.2 17.2-33.9 36.8-33.9 4.2 0 14 0 14-21.3V53.9c0-2.7 2.2-5 5-5 2.7 0 5 2.2 5 5v21.6c0 25.8-13 31.3-24 31.3-16.5 0-24.3 3.6-26.9 25.2-.3 2.5-2.5 4.3-5 4.3z" class="st0"/>
  <path d="M157.3 100.7V74c0-9.7-5.8-15.7-15.2-15.7-8 0-13.8 6.4-13.8 15.3 0 5.8-4.4 10.5-10 11.1V29.4C118.2 13.1 105 0 88.7 0S59.2 13.1 59.1 29.4v33.7h.1V87c0 20.5-10.5 22.9-18.4 22.9-25.6 0-40.8 16.2-40.8 31.9 0 2.8 2.3 5 5 5s4.9-2.2 5.1-5c0-10.8 11.5-22 30.8-22 18.3 0 28.3-11.6 28.3-32.8V63.1h2.5v25.8c0 9.8 2.3 16.3 7.1 20.1 1.4 1.1 3.1 2 4.9 2.5v57.8c0 12.2 8.3 12.2 11.8 12.2h6.7c2.8 0 5-2.2 5.1-5 0-2.8-2.3-5-5-5h-8.4c-.1-.4-.2-1.1-.2-2.2V112c1-.1 2-.3 3-.6 4.7-1.1 8.5-2 11.6-2.7v19.2c0 2.8 2.3 5 5 5 2.8 0 5-2.2 5-5v-21.1c1.3-.2 2.3-.4 3.2-.5l.8-.1c2.2-.3 5.8-.8 6.8-.3.1.2.3.8.3 2.3 0 2.8 2.3 5 5 5s4.9-2.2 5.1-4.8c0-4.4-1.3-7.7-3.7-9.8-4-3.5-9.4-2.8-14.7-2.1l-.8.1c-.6.1-1.2.2-2 .3v-2.2c11.1-.6 20-9.8 20-21.1 0-1.3.3-5.4 3.9-5.4 3.4 0 5.3 1 5.3 5.8v26.7c0 2.8 2.3 5 5 5s5-2.2 4.8-5zm-49-20.2c-1.5-1.9-2.4-4.3-2.4-6.9V63.1h2.4v17.4zM81.7 89V63.1h2v36.7c-1.3-2.2-2-5.9-2-10.8zm12.8 12.9c-.3.1-.5.1-.8.2v-39h2.2v10.5c0 8.6 5.1 15.9 12.4 19.3v5.9c-3.5.7-8 1.7-13.8 3.1z" class="st1"/>
  <circle cx="107.8" cy="45.2" r="3.5" class="st2"/>
  <circle cx="85.6" cy="45.2" r="3.5" class="st2"/>
  <path d="M102.5 32.3c1.4-1.1 3.3-1.9 5.4-1.9s4.1.7 5.4 1.9h-10.8zm-22.3 2.9c1.5-1.1 3.5-1.9 5.7-1.9s4.3.7 5.7 1.9H80.2z" class="st0"/>
  <circle cx="88.4" cy="14.8" r="3.9" class="st3"/>
  <circle cx="76.5" cy="17.5" r="6.7" class="st3"/>
  <circle cx="82.7" cy="7.6" r="3.5" class="st3"/>
  <circle cx="87.4" cy="46.4" r="1.9" class="st5"/>
  <circle cx="109.7" cy="46.5" r="1.9" class="st5"/>
  <path d="M186.3 116.8h-23c-1.1 0-1.9-.9-1.8-1.9l5.7-64.8c.1-1.1 1-1.9 2.1-1.9h23c1.1 0 1.9.9 1.8 1.9l-5.7 64.8c-.1 1.1-1 1.9-2.1 1.9z" class="st6"/>
  <path d="M184 111.2h-17.5c-.6 0-1.1-.5-1.1-1.2l4.7-56c.1-.6.6-1.2 1.3-1.2h17.5c.6 0 1.1.5 1.1 1.2l-4.7 56c-.1.7-.7 1.2-1.3 1.2z" class="st7"/>
  <path d="M121.9 115h66.6v5h-66.6z" class="st6"/>
  <path d="M158 115h30.5v5H158z" class="st8"/>
  <path d="M187.1 87.9L190 54c.1-.6-.4-1.2-1.1-1.2h-17.5c-.6 0-1.2.5-1.3 1.2l-1 11.7 18 22.2z" class="st9"/>
</svg>
